<svg width="10" height="14" viewBox="0 0 10 14" fill="none" xmlns="http://www.w3.org/2000/svg">
<path fill-rule="evenodd" clip-rule="evenodd" d="M4.66667 0.333984C2.08667 0.333984 0 2.42065 0 5.00065C0 7.78065 2.94667 11.614 4.16 13.074C4.42667 13.394 4.91333 13.394 5.18 13.074C6.38667 11.614 9.33333 7.78065 9.33333 5.00065C9.33333 2.42065 7.24667 0.333984 4.66667 0.333984ZM1.33398 5.0013C1.33398 3.1613 2.82732 1.66797 4.66732 1.66797C6.50732 1.66797 8.00065 3.1613 8.00065 5.0013C8.00065 6.9213 6.08065 9.79463 4.66732 11.588C3.28065 9.80797 1.33398 6.9013 1.33398 5.0013ZM3 5.00065C3 5.92065 3.74667 6.66732 4.66667 6.66732C5.58667 6.66732 6.33333 5.92065 6.33333 5.00065C6.33333 4.08065 5.58667 3.33398 4.66667 3.33398C3.74667 3.33398 3 4.08065 3 5.00065Z" fill="#00B088"/>
</svg>
