<svg width="22" height="20" viewBox="0 0 22 20" fill="none" xmlns="http://www.w3.org/2000/svg">
<path d="M10.7772 19H2.31823C3.30234 17.7508 3.83533 16.2056 3.83068 14.6154V1H16.8804V8.17993C16.8804 8.27939 16.9199 8.37477 16.9903 8.4451C17.0606 8.51542 17.156 8.55493 17.2554 8.55493C17.3549 8.55493 17.4503 8.51542 17.5206 8.4451C17.5909 8.37477 17.6304 8.27939 17.6304 8.17993V0.625C17.6304 0.575751 17.6207 0.526981 17.6019 0.481478C17.5831 0.435975 17.5554 0.394631 17.5206 0.359806C17.4858 0.324982 17.4444 0.29736 17.3989 0.278519C17.3534 0.259678 17.3047 0.249987 17.2554 0.25H3.45568C3.40643 0.249987 3.35766 0.259678 3.31216 0.278519C3.26665 0.29736 3.22531 0.324982 3.19049 0.359806C3.15566 0.394631 3.12804 0.435975 3.1092 0.481478C3.09036 0.526981 3.08067 0.575751 3.08068 0.625V14.6154C3.08299 15.4504 2.91965 16.2776 2.60014 17.0491C2.28062 17.8205 1.81126 18.521 1.21923 19.1099C1.16678 19.1623 1.13106 19.2291 1.11658 19.3019C1.10211 19.3746 1.10953 19.45 1.13792 19.5185C1.1663 19.587 1.21436 19.6456 1.27603 19.6868C1.3377 19.728 1.4102 19.75 1.48436 19.75H10.7772C10.8766 19.75 10.972 19.7105 11.0423 19.6402C11.1126 19.5698 11.1522 19.4745 11.1522 19.375C11.1522 19.2755 11.1126 19.1802 11.0423 19.1098C10.972 19.0395 10.8766 19 10.7772 19Z" fill="#2C5D86" stroke="#2C5D86" stroke-width="0.5"/>
<path d="M14.6572 4.97363H6.05469C5.95523 4.97363 5.85985 5.01314 5.78952 5.08347C5.7192 5.15379 5.67969 5.24918 5.67969 5.34863C5.67969 5.44809 5.7192 5.54347 5.78952 5.6138C5.85985 5.68412 5.95523 5.72363 6.05469 5.72363H14.6572C14.7566 5.72363 14.852 5.68412 14.9224 5.6138C14.9927 5.54347 15.0322 5.44809 15.0322 5.34863C15.0322 5.24918 14.9927 5.15379 14.9224 5.08347C14.852 5.01314 14.7566 4.97363 14.6572 4.97363Z" fill="#2C5D86" stroke="#2C5D86" stroke-width="0.5"/>
<path d="M15.0322 7.88916C15.0322 7.83991 15.0225 7.79114 15.0037 7.74564C14.9848 7.70014 14.9572 7.65879 14.9224 7.62397C14.8876 7.58914 14.8462 7.56152 14.8007 7.54268C14.7552 7.52384 14.7064 7.51415 14.6572 7.51416H6.05469C5.95523 7.51416 5.85985 7.55367 5.78952 7.624C5.7192 7.69432 5.67969 7.7897 5.67969 7.88916C5.67969 7.98862 5.7192 8.084 5.78952 8.15433C5.85985 8.22465 5.95523 8.26416 6.05469 8.26416H14.6572C14.7064 8.26417 14.7552 8.25448 14.8007 8.23564C14.8462 8.2168 14.8876 8.18918 14.9224 8.15435C14.9572 8.11953 14.9848 8.07818 15.0037 8.03268C15.0225 7.98718 15.0322 7.93841 15.0322 7.88916Z" fill="#2C5D86" stroke="#2C5D86" stroke-width="0.5"/>
<path d="M11.2932 10.4297C11.2932 10.3804 11.2835 10.3317 11.2646 10.2862C11.2458 10.2407 11.2182 10.1993 11.1833 10.1645C11.1485 10.1297 11.1072 10.102 11.0617 10.0832C11.0162 10.0644 10.9674 10.0547 10.9182 10.0547H6.05469C5.95523 10.0547 5.85985 10.0942 5.78952 10.1645C5.7192 10.2348 5.67969 10.3302 5.67969 10.4297C5.67969 10.5291 5.7192 10.6245 5.78952 10.6949C5.85985 10.7652 5.95523 10.8047 6.05469 10.8047H10.9182C10.9674 10.8047 11.0162 10.795 11.0617 10.7762C11.1072 10.7573 11.1485 10.7297 11.1833 10.6949C11.2182 10.6601 11.2458 10.6187 11.2646 10.5732C11.2835 10.5277 11.2932 10.4789 11.2932 10.4297Z" fill="#2C5D86" stroke="#2C5D86" stroke-width="0.5"/>
<path d="M6.05469 12.5957C5.95523 12.5957 5.85985 12.6352 5.78952 12.7055C5.7192 12.7759 5.67969 12.8712 5.67969 12.9707C5.67969 13.0702 5.7192 13.1655 5.78952 13.2359C5.85985 13.3062 5.95523 13.3457 6.05469 13.3457H9.11346C9.21292 13.3457 9.3083 13.3062 9.37863 13.2359C9.44896 13.1655 9.48846 13.0702 9.48846 12.9707C9.48846 12.8712 9.44896 12.7759 9.37863 12.7055C9.3083 12.6352 9.21292 12.5957 9.11346 12.5957H6.05469Z" fill="#2C5D86" stroke="#2C5D86" stroke-width="0.5"/>
<path d="M19.4722 11.4747C18.845 10.8464 18.0571 10.4025 17.1947 10.1917C16.3322 9.98087 15.4285 10.0112 14.5821 10.2793C13.7357 10.5473 12.9793 11.0429 12.3955 11.7119C11.8118 12.3808 11.4231 13.1973 11.2721 14.0722L10.9741 13.7742C10.9038 13.7038 10.8084 13.6643 10.7089 13.6643C10.6095 13.6643 10.5141 13.7038 10.4438 13.7742C10.3735 13.8445 10.334 13.9398 10.334 14.0393C10.334 14.1387 10.3735 14.2341 10.4438 14.3044L11.3067 15.1673C11.3772 15.2375 11.4726 15.2769 11.5721 15.2769C11.6716 15.2769 11.767 15.2375 11.8375 15.1673L12.7006 14.3044C12.7709 14.2341 12.8104 14.1387 12.8104 14.0393C12.8104 13.9398 12.7709 13.8445 12.7006 13.7742C12.6303 13.7038 12.5349 13.6643 12.4355 13.6643C12.336 13.6643 12.2406 13.7038 12.1703 13.7742L12.0852 13.8593C12.3157 12.9874 12.8278 12.2161 13.5417 11.6651C14.2556 11.1141 15.1316 10.8142 16.0334 10.8121C16.9352 10.81 17.8126 11.1057 18.5291 11.6533C19.2456 12.201 19.7613 12.9699 19.9959 13.8407C20.2306 14.7115 20.1712 15.6354 19.8269 16.4689C19.4827 17.3025 18.8728 17.999 18.092 18.4504C17.3112 18.9017 16.4033 19.0826 15.5091 18.965C14.615 18.8474 13.7847 18.4378 13.1472 17.7999C13.0769 17.7296 12.9815 17.6901 12.8821 17.6901C12.7826 17.6901 12.6872 17.7296 12.6169 17.7999C12.5466 17.8702 12.5071 17.9656 12.5071 18.065C12.5071 18.1645 12.5466 18.2599 12.6169 18.3302C13.5262 19.2385 14.7589 19.7486 16.0441 19.7483C17.3294 19.7479 18.5619 19.2372 19.4706 18.3284C20.3794 17.4196 20.8901 16.1871 20.8904 14.9019C20.8907 13.6167 20.3806 12.3839 19.4722 11.4747Z" fill="#2C5D86" stroke="#2C5D86" stroke-width="0.5"/>
<path d="M16.0447 11.6556C15.9954 11.6556 15.9467 11.6653 15.9012 11.6842C15.8557 11.703 15.8143 11.7306 15.7795 11.7654C15.7447 11.8003 15.717 11.8416 15.6982 11.8871C15.6794 11.9326 15.6697 11.9814 15.6697 12.0306V14.9025C15.6703 15.002 15.7098 15.0973 15.7799 15.168L17.1389 16.527C17.2094 16.5965 17.3045 16.6354 17.4035 16.6351C17.5026 16.6348 17.5974 16.5953 17.6675 16.5253C17.7375 16.4553 17.777 16.3604 17.7773 16.2614C17.7776 16.1623 17.7388 16.0672 17.6692 15.9967L16.4197 14.7472V12.0306C16.4197 11.9814 16.41 11.9326 16.3912 11.8871C16.3723 11.8416 16.3447 11.8003 16.3099 11.7654C16.275 11.7306 16.2337 11.703 16.1882 11.6842C16.1427 11.6653 16.0939 11.6556 16.0447 11.6556Z" fill="#2C5D86" stroke="#2C5D86" stroke-width="0.5"/>
</svg>
